<svg id="visual" viewBox="0 0 900 600" width="900" height="600" xmlns="http://www.w3.org/2000/svg" xmlns:xlink="http://www.w3.org/1999/xlink" version="1.1"><g stroke-width="1" stroke-linejoin="bevel"><path d="M419 337L490 367L516 277Z" fill="#1d4e6b" stroke="#1d4e6b"></path><path d="M373 164L317 226L419 337Z" fill="#00101c" stroke="#00101c"></path><path d="M419 337L383 422L490 367Z" fill="#246688" stroke="#246688"></path><path d="M616 339L580 216L516 277Z" fill="#205a7a" stroke="#205a7a"></path><path d="M516 277L580 216L525 202Z" fill="#205a7a" stroke="#205a7a"></path><path d="M593 423L616 339L490 367Z" fill="#1d4e6b" stroke="#1d4e6b"></path><path d="M490 367L616 339L516 277Z" fill="#15384f" stroke="#15384f"></path><path d="M567 509L593 423L490 367Z" fill="#112e42" stroke="#112e42"></path><path d="M373 164L419 337L516 277Z" fill="#15384f" stroke="#15384f"></path><path d="M419 337L275 396L383 422Z" fill="#00101c" stroke="#00101c"></path><path d="M525 202L373 164L516 277Z" fill="#0c2435" stroke="#0c2435"></path><path d="M275 396L365 477L383 422Z" fill="#112e42" stroke="#112e42"></path><path d="M525 531L567 509L490 367Z" fill="#112e42" stroke="#112e42"></path><path d="M317 226L270 292L419 337Z" fill="#19435d" stroke="#19435d"></path><path d="M270 292L275 396L419 337Z" fill="#297ea6" stroke="#297ea6"></path><path d="M525 531L490 367L383 422Z" fill="#1d4e6b" stroke="#1d4e6b"></path><path d="M365 477L525 531L383 422Z" fill="#19435d" stroke="#19435d"></path><path d="M614 94L523 75L525 202Z" fill="#297ea6" stroke="#297ea6"></path><path d="M525 202L523 75L373 164Z" fill="#277297" stroke="#277297"></path><path d="M275 396L271 477L365 477Z" fill="#19435d" stroke="#19435d"></path><path d="M365 477L471 600L525 531Z" fill="#081a28" stroke="#081a28"></path><path d="M189 423L271 477L275 396Z" fill="#277297" stroke="#277297"></path><path d="M726 209L614 94L580 216Z" fill="#1d4e6b" stroke="#1d4e6b"></path><path d="M580 216L614 94L525 202Z" fill="#081a28" stroke="#081a28"></path><path d="M523 75L369 70L373 164Z" fill="#15384f" stroke="#15384f"></path><path d="M373 164L225 163L317 226Z" fill="#205a7a" stroke="#205a7a"></path><path d="M317 226L225 163L270 292Z" fill="#112e42" stroke="#112e42"></path><path d="M729 428L736 334L616 339Z" fill="#1d4e6b" stroke="#1d4e6b"></path><path d="M616 339L726 209L580 216Z" fill="#205a7a" stroke="#205a7a"></path><path d="M729 428L616 339L593 423Z" fill="#0c2435" stroke="#0c2435"></path><path d="M736 334L726 209L616 339Z" fill="#205a7a" stroke="#205a7a"></path><path d="M627 600L697 473L567 509Z" fill="#15384f" stroke="#15384f"></path><path d="M567 509L697 473L593 423Z" fill="#277297" stroke="#277297"></path><path d="M697 473L729 428L593 423Z" fill="#15384f" stroke="#15384f"></path><path d="M369 70L316 72L373 164Z" fill="#00101c" stroke="#00101c"></path><path d="M394 600L471 600L365 477Z" fill="#19435d" stroke="#19435d"></path><path d="M525 531L627 600L567 509Z" fill="#15384f" stroke="#15384f"></path><path d="M316 72L225 163L373 164Z" fill="#15384f" stroke="#15384f"></path><path d="M169 337L189 423L275 396Z" fill="#19435d" stroke="#19435d"></path><path d="M765 365L760 279L736 334Z" fill="#00101c" stroke="#00101c"></path><path d="M736 334L760 279L726 209Z" fill="#297ea6" stroke="#297ea6"></path><path d="M333 600L394 600L365 477Z" fill="#19435d" stroke="#19435d"></path><path d="M729 428L765 365L736 334Z" fill="#081a28" stroke="#081a28"></path><path d="M169 337L275 396L270 292Z" fill="#246688" stroke="#246688"></path><path d="M271 477L333 600L365 477Z" fill="#205a7a" stroke="#205a7a"></path><path d="M129 223L169 337L270 292Z" fill="#205a7a" stroke="#205a7a"></path><path d="M608 0L517 0L523 75Z" fill="#00101c" stroke="#00101c"></path><path d="M523 75L386 0L369 70Z" fill="#205a7a" stroke="#205a7a"></path><path d="M369 70L386 0L316 72Z" fill="#15384f" stroke="#15384f"></path><path d="M189 600L333 600L271 477Z" fill="#277297" stroke="#277297"></path><path d="M517 0L386 0L523 75Z" fill="#1d4e6b" stroke="#1d4e6b"></path><path d="M316 72L223 104L225 163Z" fill="#0c2435" stroke="#0c2435"></path><path d="M277 0L223 104L316 72Z" fill="#297ea6" stroke="#297ea6"></path><path d="M225 163L129 223L270 292Z" fill="#277297" stroke="#277297"></path><path d="M67 472L202 497L189 423Z" fill="#081a28" stroke="#081a28"></path><path d="M189 423L202 497L271 477Z" fill="#297ea6" stroke="#297ea6"></path><path d="M697 473L800 497L729 428Z" fill="#081a28" stroke="#081a28"></path><path d="M471 600L627 600L525 531Z" fill="#00101c" stroke="#00101c"></path><path d="M614 94L608 0L523 75Z" fill="#00101c" stroke="#00101c"></path><path d="M735 0L608 0L614 94Z" fill="#00101c" stroke="#00101c"></path><path d="M829 180L738 82L726 209Z" fill="#15384f" stroke="#15384f"></path><path d="M726 209L738 82L614 94Z" fill="#15384f" stroke="#15384f"></path><path d="M100 83L129 223L225 163Z" fill="#277297" stroke="#277297"></path><path d="M169 337L105 382L189 423Z" fill="#112e42" stroke="#112e42"></path><path d="M386 0L277 0L316 72Z" fill="#112e42" stroke="#112e42"></path><path d="M223 104L100 83L225 163Z" fill="#0c2435" stroke="#0c2435"></path><path d="M129 223L100 321L169 337Z" fill="#0c2435" stroke="#0c2435"></path><path d="M100 321L105 382L169 337Z" fill="#1d4e6b" stroke="#1d4e6b"></path><path d="M720 600L800 497L697 473Z" fill="#205a7a" stroke="#205a7a"></path><path d="M729 428L800 497L765 365Z" fill="#1d4e6b" stroke="#1d4e6b"></path><path d="M900 311L829 180L760 279Z" fill="#246688" stroke="#246688"></path><path d="M760 279L829 180L726 209Z" fill="#15384f" stroke="#15384f"></path><path d="M627 600L720 600L697 473Z" fill="#112e42" stroke="#112e42"></path><path d="M900 311L760 279L765 365Z" fill="#277297" stroke="#277297"></path><path d="M829 180L774 64L738 82Z" fill="#081a28" stroke="#081a28"></path><path d="M738 82L735 0L614 94Z" fill="#00101c" stroke="#00101c"></path><path d="M202 497L189 600L271 477Z" fill="#0c2435" stroke="#0c2435"></path><path d="M93 600L189 600L202 497Z" fill="#246688" stroke="#246688"></path><path d="M774 64L735 0L738 82Z" fill="#081a28" stroke="#081a28"></path><path d="M900 365L900 311L765 365Z" fill="#00101c" stroke="#00101c"></path><path d="M900 0L769 0L774 64Z" fill="#1d4e6b" stroke="#1d4e6b"></path><path d="M900 86L774 64L829 180Z" fill="#205a7a" stroke="#205a7a"></path><path d="M774 64L769 0L735 0Z" fill="#246688" stroke="#246688"></path><path d="M800 497L900 365L765 365Z" fill="#112e42" stroke="#112e42"></path><path d="M0 372L67 472L105 382Z" fill="#205a7a" stroke="#205a7a"></path><path d="M105 382L67 472L189 423Z" fill="#297ea6" stroke="#297ea6"></path><path d="M164 0L100 83L223 104Z" fill="#246688" stroke="#246688"></path><path d="M0 228L0 302L100 321Z" fill="#1d4e6b" stroke="#1d4e6b"></path><path d="M100 321L0 372L105 382Z" fill="#205a7a" stroke="#205a7a"></path><path d="M277 0L164 0L223 104Z" fill="#15384f" stroke="#15384f"></path><path d="M900 311L900 177L829 180Z" fill="#0c2435" stroke="#0c2435"></path><path d="M833 600L900 482L800 497Z" fill="#00101c" stroke="#00101c"></path><path d="M800 497L900 482L900 365Z" fill="#246688" stroke="#246688"></path><path d="M720 600L833 600L800 497Z" fill="#15384f" stroke="#15384f"></path><path d="M0 228L100 321L129 223Z" fill="#081a28" stroke="#081a28"></path><path d="M0 302L0 372L100 321Z" fill="#297ea6" stroke="#297ea6"></path><path d="M0 539L93 600L67 472Z" fill="#112e42" stroke="#112e42"></path><path d="M67 472L93 600L202 497Z" fill="#15384f" stroke="#15384f"></path><path d="M100 83L0 228L129 223Z" fill="#277297" stroke="#277297"></path><path d="M900 177L900 86L829 180Z" fill="#19435d" stroke="#19435d"></path><path d="M164 0L91 0L100 83Z" fill="#205a7a" stroke="#205a7a"></path><path d="M100 83L0 71L0 228Z" fill="#15384f" stroke="#15384f"></path><path d="M833 600L900 600L900 482Z" fill="#205a7a" stroke="#205a7a"></path><path d="M0 372L0 539L67 472Z" fill="#081a28" stroke="#081a28"></path><path d="M91 0L0 71L100 83Z" fill="#0c2435" stroke="#0c2435"></path><path d="M900 86L900 0L774 64Z" fill="#0c2435" stroke="#0c2435"></path><path d="M0 539L0 600L93 600Z" fill="#15384f" stroke="#15384f"></path><path d="M91 0L0 0L0 71Z" fill="#297ea6" stroke="#297ea6"></path></g></svg>